# xmcd CD database file
#
# Track frame offsets:
#	150
#	47543
#	90406
#	151715
#	187595
#	218783
#
# Disc length: 3723 seconds
#
# Revision: 0
# Processed by: cddbd v1.4PL0 Copyright (c) Steve Scherf et al.
# Submitted via: CDex 1.50
#
DISCID=370e8906
DTITLE=Erosonic - Mystery Theatre
DYEAR=2003
DGENRE=Jazz
TTITLE0=Alogical Conclusion
TTITLE1=Circles Spirals and Pins
TTITLE2=Mystery Theatre
TTITLE3=Adrift on the Edge of Seas
TTITLE4=Beating the Heavenly Drum
TTITLE5=Tarantelle
EXTD=YEAR: 2003
EXTT0=
EXTT1=
EXTT2=
EXTT3=
EXTT4=
EXTT5=
PLAYORDER=
